<svg xmlns="http://www.w3.org/2000/svg" width="30" height="33" fill="none" viewBox="0 0 30 33">
  <path fill="#1889FC" d="M28.959 8.104l-.01-.02-.006-.009a2.249 2.249 0 00-.84-.827L15.728.287a2.264 2.264 0 00-2.206 0L1.147 7.247a2.25 2.25 0 00-.842.832l-.007.012-.01.018A2.247 2.247 0 000 9.21v13.872a2.253 2.253 0 001.147 1.96l12.375 6.962c.312.174.66.272 1.018.284l.077.005h.01c.035 0 .07-.002.105-.006.35-.015.69-.112.996-.283l12.375-6.961a2.253 2.253 0 001.147-1.962V9.21c0-.388-.1-.769-.291-1.106zM14.625 2.248l11.214 6.308-4.306 2.446-11.346-6.257 4.438-2.497zm.128 12.606L3.428 8.546 7.88 6.042l11.358 6.264-4.485 2.548zM2.25 10.465l11.377 6.338-.11 12.615L2.25 23.081V10.465zM15.767 29.4l.11-12.596 4.517-2.566v5.355a1.125 1.125 0 102.25 0v-6.633L27 10.484v12.597l-11.233 6.318z"/>
</svg>
