<svg width="28" height="26" viewBox="0 0 28 26" fill="none" xmlns="http://www.w3.org/2000/svg">
<path d="M12.125 24.25C6.25698 24.25 1.5 19.2132 1.5 13C1.5 6.7868 6.25698 1.75 12.125 1.75C17.993 1.75 22.75 6.7868 22.75 13C22.75 19.2132 17.993 24.25 12.125 24.25Z" stroke="#1789FC" stroke-width="2" stroke-linecap="round" stroke-linejoin="round"/>
<path d="M15.25 9C14.4544 8.35487 13.4618 8.00192 12.4375 8C9.84875 8 7.75 10.2375 7.75 13C7.75 15.7625 9.84875 18 12.4375 18C13.4925 18 14.4663 17.6275 15.25 17" stroke="#1789FC" stroke-width="2" stroke-linecap="round" stroke-linejoin="round"/>
<path d="M12.75 1.75C17.3338 1.75 26.5 2.875 26.5 13C26.5 23.125 17.3338 24.25 12.75 24.25" stroke="#1789FC" stroke-width="2"/>
</svg>
