<svg width="25" height="25" viewBox="0 0 25 25" fill="none" xmlns="http://www.w3.org/2000/svg">
<path d="M19.5423 18.5415V20.9582C19.5423 21.2786 19.6696 21.586 19.8962 21.8126C20.1228 22.0392 20.4302 22.1665 20.7507 22.1665C21.0711 22.1665 21.3785 22.0392 21.6051 21.8126C21.8317 21.586 21.959 21.2786 21.959 20.9582V2.83317H5.04232V16.1248H2.62565V1.62484C2.62565 1.30437 2.75296 0.997023 2.97956 0.770416C3.20617 0.54381 3.51351 0.416504 3.83398 0.416504H23.1673C23.4878 0.416504 23.7951 0.54381 24.0217 0.770416C24.2483 0.997023 24.3756 1.30437 24.3756 1.62484V20.9582C24.3756 21.9196 23.9937 22.8416 23.3139 23.5214C22.6341 24.2013 21.7121 24.5832 20.7507 24.5832H3.83398C2.87257 24.5832 1.95054 24.2013 1.27072 23.5214C0.590903 22.8416 0.208984 21.9196 0.208984 20.9582V18.5415H19.5423Z" fill="#1889FC"/>
</svg>
