<svg xmlns="http://www.w3.org/2000/svg" width="35" height="49" fill="none" viewBox="0 0 35 49">
  <path fill="#040A25" d="M22.998 5.376a5.096 5.096 0 01-.416 2.142 5.477 5.477 0 01-1.291 1.826 6.053 6.053 0 01-1.963 1.225 6.475 6.475 0 01-2.326.431c-.8 0-1.59-.146-2.328-.43a6.052 6.052 0 01-1.963-1.224 5.476 5.476 0 01-1.291-1.825 5.093 5.093 0 01-.418-2.143c.034-1.437.681-2.804 1.802-3.81C13.924.564 15.43 0 16.998 0c1.569 0 3.075.562 4.196 1.567 1.121 1.004 1.769 2.372 1.805 3.809z"/>
  <path fill="#040A25" d="M11.732 49h4.283V34.76h2.855V49h4.284V23.369l-.003-.149a5.84 5.84 0 011.465-3.873l9.36-9.45a2.082 2.082 0 001.007-1.526 2.074 2.074 0 00-1.386-2.228 2.09 2.09 0 00-2.47.898l-6.745 6.787a3.336 3.336 0 01-2.385.997h-9.112a3.33 3.33 0 01-2.381-.997L3.879 7.02a2.081 2.081 0 00-1.53-1.004A2.09 2.09 0 00.114 7.4a2.074 2.074 0 00.901 2.463l9.26 9.49a5.833 5.833 0 011.46 3.867l-.003.157V49z"/>
</svg>
