<svg xmlns="http://www.w3.org/2000/svg" width="186" height="302" fill="none" viewBox="0 0 186 302">
  <path fill="#EDF0FD" d="M141.347 171.497c-.457 2.439-1.372 4.726-2.439 7.013l-17.23 28.507c-.305.762-.305 1.372-.305 2.134v12.348c0 1.524-1.373 2.896-2.897 2.744-12.351-.763-20.432-5.031-22.262-13.263-.457-2.287-.152-4.726.763-6.86 3.811-8.537 12.503-14.939 23.481-19.513.305-.152.457-.762.152-.914l-2.744-2.287c-1.525-1.219-3.507-1.677-5.337-1.067l-19.517 5.488h-.305l-19.517-5.488c-1.83-.457-3.812-.152-5.336 1.067l-2.745 2.134c-.305.305-.305.763.153.915 10.978 4.573 19.669 10.976 23.48 19.513 1.068 2.134 1.373 4.573.763 6.86-1.83 8.231-9.91 12.5-22.261 13.262-1.525.153-2.897-1.219-2.897-2.744v-12.348c0-.762-.153-1.524-.305-2.134l-17.23-28.507c-1.067-2.286-1.982-4.573-2.44-7.012-2.897-13.415-6.404-24.543-1.372-44.666.152-.914.915-1.677 1.83-.914 5.184 4.116 23.786 15.396 30.952 21.189 1.22.915 3.05.153 3.05-1.524 0 0-1.22-13.11-5.184-16.921-6.862-6.708-24.244-8.995-27.294-10.671-1.067-.61-1.524-1.372-1.524-1.372-.458-.763-.61-1.372-.61-1.982 0 0 .457-8.08 1.372-9.604C49.71 97.563 55.96 93.294 63.89 91.313c.305-.153.61 0 .915 0l27.75 7.47h.306l27.75-7.47a.972.972 0 01.915 0c8.234 1.981 14.333 6.25 18.602 13.567.915 1.677 1.373 9.604 1.373 9.604 0 .61-.153 1.219-.458 1.829 0 0-.457.915-1.525 1.372-3.049 1.677-20.431 3.964-27.293 10.671-4.117 3.964-5.336 17.074-5.336 17.074 0 1.524 1.829 2.439 3.049 1.524 7.014-5.793 25.769-19.208 30.953-23.324.915-.762 1.525 2.135 1.829 3.202 5.032 19.97 1.525 31.25-1.372 44.665z"/>
  <path fill="#EDF0FD" d="M144.395 0l-22.261 86.74-1.22.305-28.056 7.47-28.055-7.47-1.22-.305L41.32 0h103.074zM59.008 88.57c-7.014 2.438-12.655 7.012-16.467 13.262L0 59.452V10.367C0 4.573 4.727 0 10.368 0h25.616l23.024 88.57zM40.406 106.406c-.305 1.22-.762 16.159-.762 16.159L0 110.217V66.009l40.406 40.397zM36.747 147.258L0 150.46v-36.739l38.729 12.5c-1.677 7.775-2.135 14.635-1.982 21.037zM40.559 174.088L0 202.137v-46.8l36.9-4.42c.457 8.231 1.982 15.091 3.354 21.341 0 .61.152 1.22.305 1.83zM0 207.933v69.057l53.52-79.88-11.894-19.665L0 207.933zM0 285.524v5.183c0 5.64 4.574 10.366 10.368 10.366h25.159l27.75-61.434c-1.372-2.439-2.287-5.031-3.049-7.775l-.457-1.829c-.153-1.83-.305-3.659-.458-5.336v-.152l.763-16.159v-.305l-3.812-6.403L0 285.524zM121.063 230.797a31.247 31.247 0 01-1.982 5.641c-.305.457-.457.914-.762 1.524-3.812 6.707-9.911 10.671-15.4 13.11-3.202 1.372-6.557 2.134-9.911 2.134-3.355 0-6.862-.762-9.911-2.134-5.337-2.287-11.436-6.25-15.4-13.11-.305-.457-.458-.915-.763-1.524-.915-1.982-1.677-3.811-1.982-5.641 4.27-.61 9.759-1.677 15.858-4.116 5.031-1.981 9.148-4.421 12.35-6.555 3.202 2.134 7.319 4.574 12.351 6.555a69.762 69.762 0 0015.552 4.116z"/>
  <path fill="#EDF0FD" d="M144.394 300.921H41.32l25.159-57.318c3.66 4.726 8.691 8.537 14.943 11.128 3.659 1.525 7.623 2.439 11.588 2.439 3.812 0 7.776-.914 11.436-2.439 6.251-2.744 11.283-6.402 14.942-11.128l25.006 57.318zM126.715 88.57c7.014 2.438 12.503 7.012 16.467 13.414l42.389-42.379V10.366c0-5.64-4.575-10.366-10.369-10.366h-25.463l-23.024 88.57zM145.164 106.406c.305 1.219.915 16.159.915 16.159l39.491-12.5V66.009l-40.406 40.397zM148.968 147.259l36.746 3.354v-36.891l-38.881 12.5c1.677 7.775 2.287 14.634 2.135 21.037zM145.164 174.088l40.559 28.049v-46.799l-36.899-4.421c-.458 8.232-1.983 15.092-3.355 21.342-.152.609-.152 1.219-.305 1.829zM185.716 207.934v69.056l-53.52-79.88 11.741-19.665 41.779 30.489zM185.72 285.528v5.183c0 5.641-4.574 10.367-10.368 10.367h-25.159l-27.751-61.435c1.373-2.439 2.288-5.03 3.05-7.774l.457-1.83a29.76 29.76 0 00.458-5.183v-.152l-.763-16.159v-.305l3.812-6.403 56.264 83.691z"/>
</svg>
