<svg xmlns="http://www.w3.org/2000/svg" xmlns:xlink="http://www.w3.org/1999/xlink" width="632" height="653" fill="none" viewBox="0 0 632 653">
  <g clip-path="url(#clip0)">
    <path fill="#274690" d="M409.464 411.98l117.196-6.003 23.308 39.029-9.608 76.858-8.006 12.411-61.245 6.807s-72.658-14.413-71.653-14.413c.998 0 10.008-114.689 10.008-114.689z"/>
    <path fill="#1789FC" d="M632 316.006H526.666v105.337H632V316.006zM526.666 316H421.332v105.337h105.334V316z"/>
    <path fill="#040A25" d="M210.667 316H.004v210.669h210.663V316z"/>
    <path fill="#EDF0FD" d="M421.332 316H210.669v210.669h210.663V316z"/>
    <path fill="#1789FC" d="M210.669 316l210.663 210.669H210.669"/>
    <path fill="#040A25" d="M315.997 421.331L421.331 316v210.669L315.997 421.331zM474.001 421.337c29.086 0 52.664-23.579 52.664-52.665 0-29.087-23.578-52.666-52.664-52.666-29.085 0-52.664 23.579-52.664 52.666 0 29.086 23.579 52.665 52.664 52.665zM605.662 421.331c14.543 0 26.332-11.789 26.332-26.333 0-14.543-11.789-26.332-26.332-26.332-14.543 0-26.332 11.789-26.332 26.332 0 14.544 11.789 26.333 26.332 26.333z"/>
    <path fill="#EDF0FD" d="M472.969 526.543l-51.067-51.068a1.45 1.45 0 010-2.048l51.067-51.068a1.45 1.45 0 012.048 0l51.067 51.068a1.45 1.45 0 010 2.048l-51.067 51.068a1.45 1.45 0 01-2.048 0z"/>
    <path fill="#274690" d="M631.989 421.332H526.66v105.331h105.329V421.332z"/>
    <path fill="#1789FC" d="M631.989 421.332L526.66 526.669h105.329V421.332z"/>
    <path fill="#040A25" d="M631.989 526.668H526.66V632h105.329V526.668z"/>
    <path fill="#1789FC" d="M421.336 632.002h105.328V526.671H421.336v105.331z"/>
    <path fill="#EDF0FD" d="M421.337 632l105.328-105.332H421.337V632z"/>
    <path fill="#274690" d="M474.001 579.334l-52.664-52.666V632l52.664-52.666z"/>
    <path fill="#040A25" d="M421.331 526.668H316.003V632h105.328V526.668z"/>
    <path fill="#EDF0FD" d="M421.326 632H315.997c0-29.078 23.571-52.666 52.664-52.666 29.083 0 52.665 23.588 52.665 52.666zM421.326 579.334H315.997c0-29.077 23.571-52.666 52.664-52.666 29.083 0 52.665 23.589 52.665 52.666z"/>
    <path fill="#1789FC" d="M315.998 526.668H210.669V632h105.329V526.668z"/>
    <path fill="#EDF0FD" d="M293.814 596.909v-35.143c0-.017-.011-.029-.023-.04l-30.434-17.574a.061.061 0 00-.046 0l-30.435 17.574a.05.05 0 00-.022.04v35.143c0 .017.011.028.022.04l30.435 17.574a.061.061 0 00.046 0l30.434-17.574c.017-.012.023-.023.023-.04z"/>
    <path fill="#040A25" d="M.006 526.668V632h105.328L.006 526.668zM526.66 421.331L632 316.006 526.66 316v105.331z"/>
    <path fill="#EDF0FD" d="M599.585 579.02a11.939 11.939 0 01-1.015 2.916v.006l-7.218 11.891-.006.011a2.882 2.882 0 00-.142.913v5.158c0 .662-.559 1.193-1.216 1.159-5.169-.291-8.53-2.1-9.306-5.512-.222-.97-.074-1.98.343-2.899 1.597-3.555 5.209-6.236 9.796-8.154a.239.239 0 00.069-.405l-1.124-.918a2.493 2.493 0 00-2.231-.457l-8.125 2.283c-.029.005-.046.011-.069.011-.005.006-.011.006-.022.006-.006 0-.012 0-.029-.006-.023 0-.04-.006-.068-.011l-8.125-2.283a2.47 2.47 0 00-2.226.457l-1.124.918c-.137.109-.102.343.069.405 4.587 1.918 8.193 4.599 9.797 8.154.422.919.564 1.923.342 2.899-.77 3.412-4.137 5.221-9.306 5.512a1.163 1.163 0 01-1.216-1.159v-5.158c0-.308-.045-.622-.142-.913l-.006-.011-7.218-11.891v-.006a12.287 12.287 0 01-1.015-2.916c-1.198-5.603-2.648-10.276-.582-18.641.108-.462.405-.77.764-.474 2.151 1.724 9.957 6.448 12.912 8.856.508.417 1.279.046 1.279-.616 0 0-.52-5.484-2.14-7.076-2.876-2.818-10.139-3.765-11.4-4.456a1.839 1.839 0 01-.651-.593 1.6 1.6 0 01-.211-.793s.177-3.361.565-4.029c1.729-3.035 4.331-4.844 7.646-5.649a.793.793 0 01.399.006l11.594 3.138c.029.012.063.023.092.012a.415.415 0 00.085-.012l11.594-3.138a.797.797 0 01.4-.006c3.309.805 5.911 2.614 7.645 5.649.388.668.565 4.029.565 4.029a1.579 1.579 0 01-.211.793s-.211.359-.65.593c-1.261.691-8.525 1.638-11.4 4.456-1.621 1.592-2.14 7.076-2.14 7.076a.787.787 0 001.278.616c2.961-2.408 10.761-8 12.912-9.729.36-.296.656.885.765 1.347 2.077 8.365.627 13.044-.577 18.641z"/>
    <path fill="#EDF0FD" d="M591.083 603.795a11.067 11.067 0 01-.85 2.368c-.102.206-.205.417-.325.622-1.615 2.83-4.165 4.485-6.425 5.449a11.01 11.01 0 01-4.165.902v.006a11.126 11.126 0 01-4.165-.902c-2.254-.964-4.81-2.619-6.425-5.449-.12-.205-.222-.417-.325-.622a11.146 11.146 0 01-.85-2.368 27.733 27.733 0 006.596-1.723 27.133 27.133 0 005.169-2.728v-.005a27.595 27.595 0 0011.765 4.45z"/>
  </g>
  <path fill="#040A25" d="M631.989 210.668H526.66V316h105.329V210.668z"/>
  <path fill="#1789FC" d="M421.336 316.002h105.328V210.671H421.336v105.331z"/>
  <path fill="#EDF0FD" d="M421.337 316l105.328-105.332H421.337V316z"/>
  <path fill="#274690" d="M474.001 263.334l-52.664-52.666V316l52.664-52.666z"/>
  <path fill="#040A25" d="M421.331 210.668H316.003V316h105.328V210.668z"/>
  <path fill="#EDF0FD" d="M421.326 316H315.997c0-29.078 23.571-52.666 52.664-52.666 29.083 0 52.665 23.588 52.665 52.666zM421.326 263.334H315.997c0-29.077 23.571-52.666 52.664-52.666 29.083 0 52.665 23.589 52.665 52.666z"/>
  <path fill="#1789FC" d="M315.998 210.668H210.669V316h105.329V210.668z"/>
  <path fill="#EDF0FD" d="M293.814 280.909v-35.143c0-.017-.011-.029-.023-.04l-30.434-17.574a.061.061 0 00-.046 0l-30.435 17.574a.05.05 0 00-.022.04v35.143c0 .017.011.028.022.04l30.435 17.574a.061.061 0 00.046 0l30.434-17.574c.017-.012.023-.023.023-.04z"/>
  <rect width="62.778" height="62.778" x="579.391" y="219" fill="#EDF0FD" rx="5" transform="rotate(45 579.391 219)"/>
  <rect width="62" height="63" x="611" y="232" fill="#EDF0FD" rx="5" transform="rotate(90 611 232)"/>
  <path fill="url(#pattern0)" d="M1 239h517v414H1z"/>
  <defs>
    <clipPath id="clip0">
      <path fill="#fff" d="M0 0h632v316H0z" transform="translate(0 316)"/>
    </clipPath>
    <pattern id="pattern0" width="1" height="1" patternContentUnits="objectBoundingBox">
      <use transform="matrix(.00098 0 0 .00122 0 0)" xlink:href="#image0"/>
    </pattern>
  </defs>
</svg>
