<svg xmlns="http://www.w3.org/2000/svg" width="281" height="192" fill="none" viewBox="0 0 281 192">
  <path fill="#AD6359" d="M71.949 148.495c-.981.314-28.5-.044-29.54-.726-.396-.25-.578-4.262-.661-9.123v-.152c0-.981-.035-2.031-.035-3.076v-.432c-.039-7.009.074-14.283.074-14.283l18.419.186-.56 14.171-.044.54-.107 2.943v.299s10.477 4.851 11.541 5.719c1.065.869 1.88 3.63.913 3.934z"/>
  <path fill="#1789FC" d="M63.673 140.711c-.073 0-.108-.04-.113-.064l.113.064zM71.944 148.495c-.98.314-28.494-.044-29.534-.726-.353-.221-.54-3.433-.633-7.539 5.048 1.055 24.595 5.008 25.134 3.335.206-.657-1.471-1.79-2.52-2.452 2.888 1.378 6.091 2.943 6.655 3.434 1.05.863 1.87 3.639.898 3.948z"/>
  <path fill="#000" d="M54.654 148.451c-6.196-.147-11.773-.383-12.263-.682-.354-.221-.54-3.433-.633-7.539.716.147 1.726.358 2.943.598l9.953 7.623z" opacity=".1"/>
  <path fill="#37474F" d="M36.13 41.396s4.136 46.52 4.808 50.072c.157.81.25 5.204.314 10.86.147 12.331.059 34.576.059 34.576h19.41s-.58-38.54-1.438-45.618c-.858-7.078-6.352-49.89-6.352-49.89h-16.8z"/>
  <path fill="#263238" d="M59.843 133.52c-3.027-.064-2.158-.088-5.19-.118-1.471 0-11.218-.098-12.606.133a.031.031 0 00-.02.008.03.03 0 00-.01.021.03.03 0 00.01.021.031.031 0 00.02.008c1.388.231 11.125.148 12.606.133 3.032-.03 2.163-.054 5.19-.118a.048.048 0 00.017-.003.043.043 0 00.014-.01.045.045 0 00.01-.014.043.043 0 00-.01-.048.043.043 0 00-.014-.01.048.048 0 00-.017-.003zM45 111.515c-.02-2.815-.042-5.631-.065-8.446 0-2.728 0-5.455-.147-8.177-.26-5.519-1.378-10.939-2.178-16.393a429.43 429.43 0 01-2.06-16.413c-.672-6.146-1.27-12.307-1.898-18.458 0-.044-.074-.044-.069 0 .918 10.987 1.938 21.97 3.434 32.894.38 2.717.791 5.428 1.236 8.133.456 2.737.907 5.479 1.123 8.25.216 2.772.245 5.43.27 8.148l.088 8.441c.06 6.25.118 15.864.182 22.113 0 .025.01.048.027.066a.095.095 0 00.066.027c.025 0 .048-.01.066-.027a.094.094 0 00.027-.066c-.02-5.602-.059-14.544-.103-20.092z"/>
  <path fill="#263238" d="M32.04 41.396s8.226 46.52 8.922 50.072c.157.81.25 5.204.314 10.86l9.252-60.947-18.488.015z"/>
  <path fill="#AD6359" d="M26.051 150.06C25.07 149.903.642 137.15.024 136.075c-.245-.407 1.408-4.071 3.532-8.441l.069-.133c.431-.902 9.148-15.598 9.148-15.598l15.01 8.829-8.34 14.838-.146.265s7.156 9.06 7.715 10.301c.56 1.241.04 4.086-.961 3.924z"/>
  <path fill="#1789FC" d="M26.051 150.06C25.07 149.903.647 137.15.024 136.07c-.206-.343.981-3.07 2.634-6.572 3.498 2.643 20.386 15.328 21.622 14.009.26-.28.064-.937-.28-1.644a44.45 44.45 0 013.027 4.268c.55 1.246.025 4.091-.976 3.929z"/>
  <path fill="#37474F" d="M21.616 135.006L3.83 124.018s20.602-29.43 20.675-32.055c.143-3.89 2.007-19.934 3.576-32.923 0 0-2.972-7.04 2.585-17.659H52.95S51.454 51.496 48.9 57.907a29.676 29.676 0 00-4.955 2.26s-2.217 28.966-2.3 32.581c-.162 7.137-20.028 42.258-20.028 42.258z"/>
  <path fill="#263238" d="M22.706 130.905c-2.565-1.608-1.81-1.187-4.415-2.766-1.265-.775-9.58-5.847-10.884-6.377-.03 0-.06.035-.035.054 1.07.908 9.472 5.837 10.753 6.583 2.614 1.53 1.878 1.064 4.512 2.565a.044.044 0 00.064.005.046.046 0 00.005-.064zM49.748 57.46a36.682 36.682 0 00-5.803 2.703.065.065 0 10.054.118c1.962-.84 3.949-1.643 5.852-2.585a.127.127 0 00.068-.071.13.13 0 00-.03-.14.128.128 0 00-.141-.025zM47.015 54.233c.192-1.163.349-2.33.447-3.508.203-2.189.18-4.393-.069-6.577a.059.059 0 00-.056-.042.059.059 0 00-.057.042c.05 3.035-.127 6.07-.53 9.08-.22 1.446-.946 3.624.565 3.85 1.51.225 2.536-3.434 2.727-4.415.48-2.843.589-5.737.324-8.608 0-.07-.123-.084-.123 0 0 2.18-.11 4.359-.329 6.528-.088 1.006-.897 6.568-2.644 6.161-.294-.069-.441-.353-.49-.794.004-.577.081-1.15.23-1.708"/>
  <path fill="#263238" d="M47.339 56.886c-.156.376-.287.76-.393 1.153a2.613 2.613 0 00-.161.947c0 .059.088.068.122.024.18-.285.315-.596.402-.922.133-.358.275-.711.398-1.07a.196.196 0 00-.368-.132zM33.286 42.78a20.3 20.3 0 00-1.667 3.673 22.428 22.428 0 00-.981 3.924c-.128.657-.167 1.33-.24 1.996-.074.668-.08 1.34-.04 2.007.03 1.34.186 2.673.466 3.983v.049c-.51 5.618-1.042 11.236-1.594 16.854-.553 5.618-1.105 11.226-1.658 16.825l-.054.53-.025.26a1.08 1.08 0 01-.058.289 8.655 8.655 0 01-.491.98c-.353.619-.726 1.217-1.094 1.82l-2.246 3.586c-1.511 2.384-3.056 4.744-4.597 7.108-3.075 4.733-6.21 9.423-9.349 14.107l9.075-14.284 4.512-7.156 2.232-3.59c.363-.6.731-1.203 1.08-1.81.166-.295.358-.634.49-.889a.65.65 0 00.04-.23v-.26l.053-.525c.53-5.618 1.084-11.231 1.663-16.84.579-5.608 1.154-11.218 1.727-16.83v.05a21.538 21.538 0 01-.427-4.042c-.03-.677.04-1.354.073-2.03.035-.678.148-1.35.29-2.012.243-1.33.604-2.634 1.079-3.9a20.773 20.773 0 011.741-3.644z"/>
  <path fill="#1789FC" d="M72.989 57.51L61.78 168.698h-2.737L69.981 60.227H46.535L26.753 168.699h-2.767l20.278-111.19H72.99z"/>
  <path fill="#1789FC" d="M70.08 81.412H42.37v2.718h27.71v-2.718zM65.68 103.461H37.97v2.717h27.71v-2.717zM63.522 125.51H33.286v2.717h30.236v-2.717zM61.854 147.558H29.676v2.718h32.178v-2.718z"/>
  <g opacity=".5">
    <path fill="#000" d="M72.989 57.51L61.78 168.698h-2.737L69.981 60.227H46.535L26.753 168.699h-2.767l20.278-111.19H72.99z" opacity=".5"/>
    <path fill="#000" d="M70.08 81.412H42.371v2.718h27.71v-2.718zM65.68 103.461H37.97v2.717h27.71v-2.717zM63.522 125.51H33.286v2.717h30.236v-2.717zM61.855 147.558H29.677v2.718h32.178v-2.718z" opacity=".5"/>
  </g>
  <path fill="#1789FC" d="M95.768 177.612H93L70.747 60.227H47.31L60.7 177.612H57.97L44.264 57.509h28.734l22.77 120.103z"/>
  <path fill="#000" d="M95.768 177.612H93L70.747 60.227H47.31L60.7 177.612H57.97L44.264 57.509h28.734l22.77 120.103z" opacity=".2"/>
  <path fill="#1789FC" d="M74.323 54.267H42.459v3.242h31.864v-3.242z"/>
  <path fill="#000" d="M74.323 54.267H42.459v3.242h31.864v-3.242z" opacity=".2"/>
  <path fill="#263238" d="M64.876 20.657a.192.192 0 01-.177.186l-.804-.029c-.515-1.962-1.128-3.492-.981-2.894a9.72 9.72 0 01.2 2.855c-.352 0-1.171-.064-1.579-.089-.274-3.335-.809-5.847-.843-5.091-.118 3.041-.403 3.993-.721 5.008-3.812-.226-8.83-.574-12.42-.907-.221-1.85-.378-3.846-.456-3.719a9.421 9.421 0 00-1.02 3.581c-1.149-.113-2.066-.225-2.62-.323 0 0-.108-1.546-.093-2.05.033-1.297.305-2.576.804-3.773a19.044 19.044 0 012.036-3.36c.494-.7.901-1.458 1.211-2.256.217-.578.38-1.174.49-1.78.403-2.213 1.865-4.013 4.028-4.381 3.924-2.57 8.167-1.33 9.065 1.663.083.289.162.623.235.98.27 1.335.456 3.047.657 4.376.075.52.18 1.037.315 1.545.784 2.428 2.933 3.993 2.673 10.458z"/>
  <path fill="#263238" d="M50.98 2.13a4.243 4.243 0 00-2.796 3.14c-.164.93-.448 1.835-.844 2.692a10.09 10.09 0 01-1.845 2.276 7.284 7.284 0 00-2.231 3.817 12.36 12.36 0 00-.06 5.106 13.174 13.174 0 01.378-5.293c.491-1.736 1.61-2.747 2.777-3.983a7.437 7.437 0 001.888-3.433 8.826 8.826 0 01.677-2.36 4.836 4.836 0 012.139-1.795.093.093 0 10-.084-.167zM64.277 12.921c-.84-1.368-1.737-2.55-2.139-4.184-.368-1.471-.49-3.031-.883-4.517h-.034c.544 2.624.431 5.204 1.844 7.51.83 1.2 1.498 2.504 1.987 3.88.44 1.521.588 3.112.436 4.689 0 .054.069.059.079 0a10.33 10.33 0 00-1.29-7.377z"/>
  <path fill="#AD6359" d="M51.867 23.507c.363 3.728 2.884 16.486 6.425 19.69 2.541 2.3 11.812 5.199 19.13 5.93 2.532.25 2.085-10.68-.147-12.264-1.344-.946-12.056-1.579-13.64-2.423-1.188-.627-3.366-7.034-7.913-13.091-2.497-3.321-4.35-2.855-3.855 2.158z"/>
  <path fill="#AD6359" d="M76.77 49.058c1.448.152 9.615 1.03 11.489.642 1.873-.387 7.176-1.878 7.029-3.34-.147-1.462-1.742-1.148-1.742-1.148s2.144-.98 1.86-2.452c-.285-1.472-2.738-.888-2.738-.888s2.124-1.173 1.737-2.61c-.388-1.437-2.762-.451-2.762-.451s1.996-.981 1.177-2.03c-.98-1.261-4.449.98-6.548 1.235-.49.06-9.747.55-9.747.55l.246 10.492z"/>
  <path fill="#263238" d="M91.849 38.737c-2.556 1.629-3.954 1.904-6.936 1.913-.059 0-.073.089 0 .093 2.943.255 4.729.167 7.034-1.888.103-.098.03-.196-.098-.118zM92.869 41.744c-2.801 1.472-4.317 1.766-7.441 2.011-.044 0-.044.079 0 .079 3.085 0 4.905-.113 7.49-1.962.118-.06.078-.197-.05-.128zM93.389 45.217c-2.816 1.221-4.464 1.629-7.525 1.471a.059.059 0 000 .113c3.105.461 5.165-.034 7.564-1.496.152-.098.137-.162-.04-.088z"/>
  <path fill="#AD6359" d="M74.342 37.447s3.433-2.32 5.067-2.81c1.633-.49 8.407-.069 8.397 1.398 0 1.898-3.968 2.423-5.94 2.428 0 0 0 4.38-2.776 5.395-2.776 1.016-4.748-6.41-4.748-6.41z"/>
  <path fill="#263238" d="M87.63 36.554c-1.256 1.722-3.84 1.56-5.754 1.707a.177.177 0 00-.157.246c-.132 1.834-.853 4.385-2.521 5.395a.044.044 0 00.04.079c1.932-.82 2.844-3.272 2.859-5.293 1.962-.117 4.567-.073 5.553-2.104.004-.03-.01-.04-.02-.03z"/>
  <path fill="#1789FC" d="M56.41 43.623l6.057-11.571a114.034 114.034 0 00-6.376-10.998c-3.385-5.023-5.602-5.184-4.803 2.34.8 7.525 2.566 16.506 5.122 20.229z"/>
  <path fill="#1789FC" d="M56.41 43.623l6.057-11.571a114.034 114.034 0 00-6.376-10.998c-3.385-5.023-5.602-5.184-4.803 2.34.8 7.525 2.566 16.506 5.122 20.229z"/>
  <path fill="#fff" d="M53.122 19.043a.682.682 0 11-1.359-.113.682.682 0 011.359.113zm-1.099 9.899l.133.804a.668.668 0 00.038-.557.643.643 0 00-.17-.247zm5.68.328a.677.677 0 10-.113 1.35.677.677 0 00.113-1.35zm-2.624-5.194a.679.679 0 10-.113 1.353.679.679 0 00.113-1.353zm1.742 15.637a.678.678 0 10.618.731.682.682 0 00-.618-.73zm-2.615-5.209a.682.682 0 10-.123 1.359.682.682 0 00.123-1.359zm6.087.515a.684.684 0 00-.794.613.68.68 0 00.677.74h.034l.564-1.083a.662.662 0 00-.49-.255l.01-.015z"/>
  <path fill="#263238" d="M61 31.38a76.748 76.748 0 00-2.605 4.743c-.405.814-.803 1.632-1.192 2.452-.392.84-.73 1.703-1.103 2.546 0 .044.044.064.063.025.785-1.639 1.634-3.252 2.453-4.876.82-1.624 1.629-3.238 2.453-4.856.004-.035-.05-.064-.07-.035z"/>
  <path fill="#000" d="M61.137 34.597l-4.728 9.026c-2.56-3.743-4.317-12.695-5.121-20.22-.461-4.31.073-6.101 1.25-5.885l8.6 17.08z" opacity=".1"/>
  <path fill="#1789FC" d="M53.285 43.196l-22.623-1.825s9.57-20.312 16.05-24.447c2.943-1.883 5.12-.922 6.632 1.158.377.52 4.385 9.575 4.213 12.331-.152 2.453-2.693 4.528-2.693 4.528l-1.58 8.255z"/>
  <path fill="#fff" d="M47.035 18.528a.682.682 0 11-1.358-.113.682.682 0 011.358.113zm5.47-.21a.681.681 0 10-.123 1.357.681.681 0 00.123-1.358zM39.442 27.72a.676.676 0 10-.112 1.348.676.676 0 00.112-1.348zm6.088.49a.676.676 0 10.618.737.677.677 0 00-.618-.712v-.024zm6.087.491a.676.676 0 10.618.736.677.677 0 00-.618-.687v-.049zm5.862.54a.672.672 0 00-.49.598.662.662 0 00.573.722v-.192a5.444 5.444 0 00-.083-1.079v-.049zm-14.554-6.195a.675.675 0 00-.742.617.677.677 0 10.742-.617zm6.087.49a.676.676 0 10.618.731.674.674 0 00-.637-.706l.02-.025zm6.088.49a.679.679 0 10-.114 1.353.679.679 0 00.114-1.352zM32.536 37.61l-.584 1.138a.667.667 0 00.912.056.677.677 0 00-.328-1.194zm6.048.49a.681.681 0 10.618.737.682.682 0 00-.643-.672l.025-.064zm6.087.491a.686.686 0 00-.736.623.68.68 0 101.354.113.681.681 0 00-.642-.648l.024-.088zm6.087.52a.676.676 0 10.619.731.682.682 0 00-.643-.642l.024-.089zm-14.803-6.224a.677.677 0 10-.09 1.35.677.677 0 00.09-1.35zm6.092.514a.682.682 0 00-.118 1.354.687.687 0 00.736-.623.677.677 0 00-.643-.642l.025-.088zm6.087.491a.677.677 0 00-.736.618.681.681 0 10.736-.618zm6.073.613a.682.682 0 10-.123 1.359.682.682 0 00.123-1.359z"/>
  <path fill="#263238" d="M51.234 33.185c-1.181.008-2.36.104-3.527.289-.579.098-1.153.226-1.722.363-.284.069-.569.127-.858.186-.298.07-.602.102-.908.098-.03 0-.03.04 0 .04.288.04.578.058.869.054.28-.01.558-.04.833-.089.59-.093 1.173-.215 1.761-.319 1.182-.2 2.365-.407 3.561-.524.05-.005.045-.098-.01-.098zM54.05 34.455a26.338 26.338 0 00-2.9-.373c-.49-.034-.98-.039-1.47-.03h-.697c-.236 0-.49.06-.766.07-.029 0-.029.039 0 .039.246 0 .49.039.726.054l.726.039 1.472.083a69.37 69.37 0 012.913.182.045.045 0 00.012-.033.044.044 0 00-.016-.03z"/>
  <path fill="#AD6359" d="M44.627 18.317c-7.642 5.965-14.524 10.522-15.142 14.627-.922 6.156 3.065 19.37 5.307 22.137.981 1.192 11.336-4.723 10.683-6.234-.78-1.81-5.538-14.328-5.273-15.3.447-1.667 2.791-4.414 7.525-12.43 3.664-6.234-.162-5.096-3.1-2.8z"/>
  <path fill="#AD6359" d="M42.434 45.497s2.669.853 5.67 1.471c1.673.339 4.499 1.168 5.612 1.962 1.673 1.212 7.898 7.358 6.44 8.883-1.314 1.393-5.988-4.552-5.988-4.552s5.248 5.582 3.355 6.97c-1.894 1.389-6.26-6.038-6.26-6.038s5.264 5.857 3.086 6.98c-1.663.85-6.028-5.65-6.028-5.65s4.488 5.067 2.835 6.009c-1.83 1.044-6.225-4.7-6.225-4.7-4.616 1.693-9.006.49-10.644-2.388-.255-.466 8.147-8.947 8.147-8.947z"/>
  <path fill="#263238" d="M52.485 51.211c.637.633 1.29 1.27 1.873 1.962a29.857 29.857 0 011.653 2.134 15.36 15.36 0 011.732 3.07 32.742 32.742 0 00-3.58-5.052c-.58-.687-1.124-1.403-1.708-2.09-.014-.024.015-.053.03-.024zM49.96 53.266c.784.844 1.593 1.653 2.339 2.531.745.878 1.368 1.771 2.045 2.693.054.074 0 .079-.059 0-.716-.892-1.447-1.667-2.173-2.555-.726-.888-1.417-1.8-2.172-2.659l.02-.01zM47.477 54.64a25.749 25.749 0 013.296 4.145c.049.073-.025.073-.079 0-1.064-1.398-1.888-2.502-3.242-4.101-.039-.025 0-.069.025-.044z"/>
  <path fill="#1789FC" d="M28.415 32.336l13.053-.083a115.126 115.126 0 006.71-10.792c2.845-5.346 1.962-7.382-4.322-3.14-6.283 4.244-13.337 9.993-15.441 14.015z"/>
  <path fill="#fff" d="M47.035 18.528a.682.682 0 11-1.359-.113.682.682 0 011.359.113zm-13.68 8.677a.673.673 0 00-.731.618.676.676 0 101.348.113.67.67 0 00-.618-.73zm6.087.49a.678.678 0 10.618.737.677.677 0 00-.618-.712v-.024zm-2.026-4.684c-.324.26-.643.49-.981.775a.671.671 0 00.976-.55.696.696 0 00.005-.2v-.025zm5.489 0a.678.678 0 10-.136 1.35.678.678 0 00.136-1.35z"/>
  <path fill="#263238" d="M46.687 24.88a6.62 6.62 0 00-.81.849l-.254.304c.358-.613.706-1.222 1.06-1.84 0-.039-.035-.083-.065-.044-.868 1.36-4.905 7.721-5.126 8.055-.029 0-.706.034-.725 0-.02-.035 0 .073 0 .063 0-.01.912.069.917.064.265-.255 3.262-5.17 3.615-5.768l.074-.074.21-.23c.133-.143.256-.29.383-.437.273-.293.524-.606.75-.937l-.029-.005z"/>
  <path fill="#263238" d="M41.763 30.904c-.488-.076-.98-.12-1.472-.133-.49-.039-.981-.088-1.472-.117a68.76 68.76 0 00-2.84-.113 55.428 55.428 0 00-5.71.088c-.039 0-.039.069 0 .069 1.933.088 3.861.078 5.794.122l2.845.069c.49 0 .951 0 1.427.024.476.025.981.07 1.428.035.029 0 .024-.04 0-.044z"/>
  <path fill="#AD6359" d="M48.977 16.816c0 .461 1.305 3.836 3.312 4.273.652.142 1.589-3.395 1.589-3.395l.127-.245 1.796-3.434-3.557-3.924-.52-.53s-.431.982-.951 2.188l-.079.177-.088.196c-.078.181-.162.363-.235.55-.074.186-.118.279-.177.431l-.177.441a25.706 25.706 0 00-1.04 3.272z"/>
  <path fill="#263238" d="M50.773 11.764a7.765 7.765 0 003.233 5.685l1.795-3.434-3.556-3.924-.52-.53s-.432.986-.952 2.203z"/>
  <path fill="#AD6359" d="M62.472 8.703c.074 6.804-3.998 7.613-5.464 7.652-1.334 0-5.886-.118-6.642-6.867-.755-6.75 2.37-8.942 5.396-9.134 3.026-.19 6.642 1.546 6.71 8.349z"/>
  <path fill="#263238" d="M61.5 7.526c-.157 0-.304-.069-.456-.103a.804.804 0 01-.451-.196.246.246 0 010-.295.593.593 0 01.593-.132.878.878 0 01.55.319.26.26 0 01-.235.407zM56.836 7.467c.161 0 .304-.059.46-.088a.76.76 0 00.452-.187.235.235 0 000-.294.598.598 0 00-.589-.147.883.883 0 00-.559.304.255.255 0 00.236.412zM57.895 9.15s-.04 0-.035.044c0 .46-.039.98-.456 1.152v.03c.515-.079.584-.79.49-1.227z"/>
  <path fill="#263238" d="M57.473 8.674c-.745-.05-.784 1.471-.093 1.471.692 0 .721-1.432.093-1.471z"/>
  <path fill="#263238" d="M57.179 8.742c-.133.084-.265.226-.422.24-.157.015-.319-.147-.432-.304 0 .285.088.584.393.633.304.05.49-.2.569-.49-.01-.03-.054-.113-.108-.079zM60.47 9.125s.035 0 .035.044c-.03.461 0 .98.427 1.162 0 0 0 .03 0 0-.515-.063-.564-.775-.461-1.206z"/>
  <path fill="#263238" d="M60.902 8.654c.746-.03.75 1.472.059 1.472-.692 0-.687-1.447-.059-1.472z"/>
  <path fill="#263238" d="M61.216 8.752c.117.079.235.22.372.23.138.01.285-.151.393-.304 0 .285-.084.584-.358.638-.275.054-.437-.191-.49-.49-.006-.025.034-.103.083-.074zM57.734 12.95c.103.119.206.276.372.3.168.006.334-.02.491-.078 0 0 .03 0 0 0a.622.622 0 01-.603.206.49.49 0 01-.334-.432c.025-.024.059-.024.074.005zM59.7 11.308s.084.691.079 1.02c0 .03-.079.044-.192.049a1.56 1.56 0 01-1.496-.603.035.035 0 01.028-.05c.008 0 .015.002.021.005a2.33 2.33 0 001.413.427c0-.088-.186-1.182-.132-1.187.252.03.499.09.735.182-.132-1.472-.49-2.865-.613-4.312a.044.044 0 01.076-.031c.008.008.013.02.013.031.43 1.506.713 3.05.843 4.61.02.173-.647-.082-.775-.141z"/>
  <path fill="#263238" d="M50.984 9.704c1.094.088 1.359-2.198 1.359-2.198s2.222 0 2.972-3.169a4.905 4.905 0 01-.98 2.634s3.923-.387 5.591-3.654c0 0-.672 1.663-1.29 2.252a4.576 4.576 0 002.453-1.776s.672 1.898 1.197 2.423c0 0-.113-6.867-6.465-6.166 0 0-3.979.24-5.426 3.375-1.447 3.134.589 6.279.589 6.279z"/>
  <path fill="#AD6359" d="M50.381 11.965c.099.046.203.08.31.103a1.055 1.055 0 00.715-.064c.1-.046.191-.106.275-.176a1.42 1.42 0 00.284-.363l-.21-1.84s-1.32-2.232-2.32-1.775c-1.001.456-.133 3.6.946 4.115z"/>
  <path fill="#fff" d="M50.494 11.685a.316.316 0 10.627-.078.316.316 0 00-.627.078zM49.885 11.16a.223.223 0 00.396.11.223.223 0 00.046-.163.22.22 0 00-.245-.197.225.225 0 00-.197.25z"/>
  <g>
    <path fill="#1789FC" d="M206.189 136.321v42.052h-31.693a27.47 27.47 0 10-54.937 0H87.842v-42.052h118.347z"/>
    <path fill="#000" d="M206.189 136.321v42.052h-31.693a27.47 27.47 0 10-54.937 0H87.842v-42.052h118.347z" opacity=".1"/>
    <path fill="#1789FC" d="M196.908 136.321v42.052h-31.692a27.47 27.47 0 10-54.938 0H78.561v-42.052h118.347z"/>
    <path fill="#fff" d="M196.908 136.321v42.052h-31.692a27.47 27.47 0 10-54.938 0H78.561v-42.052h118.347z" opacity=".5"/>
    <path fill="#455A64" d="M132.518 90.08H78.561v46.241h53.957V90.08z"/>
    <path fill="#37474F" d="M132.523 90.08h-15.834v46.241h15.834V90.08z"/>
    <path fill="#1789FC" d="M206.189 47.326H78.562V90.04h127.627V47.326z"/>
    <path fill="#000" d="M206.188 47.326h-14.985V90.04h14.985V47.326z" opacity=".1"/>
    <path fill="#37474F" d="M110.725 16.512h17.923l38.849 30.814h-17.923l-38.849-30.814z"/>
    <path fill="#455A64" d="M71.87 47.326h77.703l-38.849-30.814L71.87 47.326z"/>
    <path fill="#C7C7C7" d="M75.383 140.524H21.426v46.241h53.957v-46.241z"/>
    <path fill="#A6A6A6" d="M75.383 140.524H59.549v46.241h15.834v-46.241z"/>
    <path fill="#455A64" d="M113.167 191.734H67.466v-45.701l45.701 45.701z"/>
    <path fill="#37474F" d="M67.466 146.033l45.701 45.701h16.604L83.707 145.67l-16.241.363z"/>
  </g>
  <g>
    <path fill="#F7A9A0" d="M280.899 190.621c-.108-.981-11.596-25.752-12.631-26.414-.388-.26-4.091 1.201-8.516 3.1l-.142.058c-.912.388-17.747 4.906-17.747 4.906l7.461 16.187 17.521-5.062.265-.128s8.638 7.505 9.855 8.118c1.216.613 4.046.231 3.934-.765z"/>
    <path fill="#EBEBEB" d="M256.412 168.307l7.677 15.903 2.751-.795.27-.127s8.638 7.504 9.85 8.113c1.211.608 4.056.216 3.924-.78-.132-.996-11.596-25.752-12.626-26.414-.392-.26-4.096 1.201-8.525 3.1l-.133.058c-.215.099-1.456.457-3.188.942z"/>
    <path fill="#1789FC" d="M280.996 190.743c-.108-1.01-11.62-26.041-12.66-26.718-.397-.26-4.14 1.202-8.613 3.1l7.357 16.162s8.692 7.613 9.914 8.231c1.221.618 4.115.236 4.002-.775z"/>
    <path fill="#263238" d="M279.844 190.846c-2.031-4.149-9.84-21.092-11.532-25.335 0-.034 0-.044 0 0 2.109 4.067 9.776 21.058 11.581 25.311.044.083-.02.113-.049.024zM275.375 190.326a3.72 3.72 0 01-.132-2.982 3.596 3.596 0 011.81-1.962c.029 0 .049.034.024.049a4.29 4.29 0 00-1.648 4.876c0 .029-.039.049-.054.019zM268.263 184.725c-.795-1.673-1.099-3.89-.201-5.568.034-.063.122 0 .122.049a25.696 25.696 0 00.299 5.45.12.12 0 01-.018.078.124.124 0 01-.064.048.12.12 0 01-.138-.057zM269.366 185.789c-.794-1.672-1.099-3.89-.206-5.567.034-.064.128 0 .123.049a25.632 25.632 0 00.304 5.45.117.117 0 01-.019.077.116.116 0 01-.063.048.122.122 0 01-.08-.003.124.124 0 01-.059-.054zM270.47 186.854c-.799-1.673-1.099-3.89-.206-5.568.035-.063.128 0 .123.049a25.696 25.696 0 00.299 5.45.111.111 0 01-.074.142.112.112 0 01-.142-.073zM271.568 187.913c-.794-1.668-1.098-3.885-.206-5.562.04-.064.128 0 .128.049a25.294 25.294 0 00.299 5.449.116.116 0 01-.021.075.116.116 0 01-.142.041.117.117 0 01-.058-.052zM264.805 168.415c-.864-1.888 2.07-3.227 2.943-1.339.873 1.888-2.08 3.228-2.943 1.339z"/>
    <path fill="#263238" d="M267.017 187.334c.755-1.447.853-3.164 1.133-4.743.029-.162-.137-.255-.275-.235a.053.053 0 00-.011-.021.06.06 0 00-.018-.013.042.042 0 00-.022-.005.054.054 0 00-.022.004 9.775 9.775 0 00-3.596 3.503c-.49.863-.686 2.251.412 2.776 1.099.525 1.982-.422 2.399-1.266zm-1.354.702c-1.908.672-1.261-1.619-.873-2.242.257-.397.543-.776.853-1.133a28.686 28.686 0 012.051-2.09c-.182.766-.299 1.541-.456 2.311-.182.937-.525 2.796-1.575 3.154z"/>
    <path fill="#263238" d="M263.985 176.852c-1.035.633-.696 1.997-.118 2.801a9.702 9.702 0 003.925 3.115c.034 0 .058 0 .068-.039.138 0 .295-.108.246-.265-.437-1.541-.712-3.243-1.609-4.601-.515-.795-1.531-1.599-2.512-1.011zm2.992 3.434c.231.75.427 1.511.692 2.251a29.076 29.076 0 01-2.261-1.869 11.08 11.08 0 01-.981-1.04c-.447-.578-1.325-2.795.637-2.32 1.099.241 1.634 2.06 1.913 2.958v.02zM219.766 119.437s.309 9.702 1.761 14.48c0 0 1.589.834 2.065 1.133 0 0-12.052 28.862-11.365 39.963.22 3.644 4.345 9.623 8.51 12.218 7.358 4.582 43.342.564 43.342.564l-5.219-21.631s-22.745 1.27-23.319.039c-.731-1.565 3.801-13.7 7.416-23.545.363-.981 4.003-4.675 3.581-11.326a34.32 34.32 0 00-3.134-11.875l-23.638-.02z"/>
    <path fill="#37474F" d="M254.71 168.572c-4.959-.093-9.006.329-13.965.329h-5.626a5.519 5.519 0 01-1.295-.118c-.39-.068-.74-.28-.981-.594-.329-.49-.152-1.118-.039-1.648.248-1.167.528-2.326.838-3.477 1.251-4.69 2.885-9.266 4.415-13.867l2.369-7.103c.196-.579.388-1.153.628-1.712.233-.504.493-.996.78-1.471a13.923 13.923 0 001.349-2.944c1.344-4.414.049-8.976-1.516-13.136a67.785 67.785 0 00-.657-1.667c0-.04-.079-.025-.064 0 1.432 4.414 3.134 8.961 2.173 13.651a11.261 11.261 0 01-1.143 3.159c-.275.49-.579.981-.844 1.496-.269.515-.5 1.049-.691 1.599-.844 2.33-1.584 4.694-2.374 7.044-1.57 4.669-3.218 9.319-4.523 14.072a74.799 74.799 0 00-.893 3.571c-.196.883-.637 2.085.133 2.816.559.535 1.471.598 2.183.603h3.708c5.033 0 15.427-.431 16.05-.446a.086.086 0 00.032-.036.094.094 0 00.009-.047.09.09 0 00-.056-.074zM260.258 186.785c-.491-2.521-.952-5.062-1.511-7.574a211.036 211.036 0 00-1.82-7.524c-.181-.706-.372-1.408-.559-2.109-.093-.339-.181-.672-.279-1.006a8.77 8.77 0 00-.309-1.005c0-.04-.064 0-.064 0 .069.661.185 1.317.348 1.962.123.608.24 1.216.363 1.829.258 1.253.525 2.503.8 3.753.544 2.506 1.167 4.988 1.805 7.475.363 1.408.731 2.821 1.098 4.228a.066.066 0 00.079.049.061.061 0 00.041-.029.064.064 0 00.008-.049z"/>
    <path fill="#37474F" d="M216.356 154.793l25.507-9.246c.358-.981.721-1.962 1.07-2.909.348-.946 4.002-4.674 3.575-11.326a34.395 34.395 0 00-3.124-11.88h-23.643s.309 9.707 1.766 14.48c0 0 1.584.839 2.06 1.138.025.01-3.954 9.526-7.211 19.743z"/>
    <path fill="#F7A9A0" d="M178.685 191.783c.981.29 28.234-.613 29.249-1.309.392-.256.491-4.239.491-9.05v-.153c0-.981-2.252-17.624-2.252-17.624l-19.091.574 3.723 17.438v.294s-10.301 5.018-11.326 5.886c-1.025.869-1.756 3.66-.794 3.944z"/>
    <path fill="#EBEBEB" d="M178.685 191.783c.981.29 28.234-.613 29.25-1.304.392-.265.49-4.243.49-9.055v-.152c0-.27-.172-1.717-.417-3.665l-17.928.697.716 3.35v.299s-10.301 5.018-11.326 5.887c-1.025.868-1.746 3.654-.785 3.943z"/>
    <path fill="#1789FC" d="M178.479 191.901c.981.289 28.509-.628 29.539-1.324.392-.265.49-4.283.49-9.144l-17.756.54s-10.404 5.082-11.464 5.955c-1.059.873-1.785 3.684-.809 3.973z"/>
    <path fill="#263238" d="M178.837 190.788c4.611-.27 23.241-.913 27.822-.824.035 0 .035.024 0 .029-4.566.363-23.201.854-27.822.868-.098 0-.098-.068 0-.073zM181.039 186.878a3.728 3.728 0 012.801 1.035 3.604 3.604 0 011.113 2.453c0 .024-.049.029-.054 0a4.29 4.29 0 00-3.87-3.411.064.064 0 01-.014-.008.04.04 0 01-.013-.027.038.038 0 01.01-.029.043.043 0 01.027-.013zM188.961 182.493c1.845-.088 4.008.49 5.209 1.962.045.059-.034.123-.093.098a25.067 25.067 0 00-5.14-1.835.118.118 0 01-.058-.048.119.119 0 01.016-.142.113.113 0 01.066-.035zM187.553 183.096c1.844-.088 4.007.491 5.209 1.962.044.059-.034.123-.093.099a25.075 25.075 0 00-5.141-1.835.119.119 0 01-.073-.122.119.119 0 01.098-.104zM186.155 183.7c1.845-.089 4.008.49 5.21 1.962.044.059-.035.122-.093.098a25.096 25.096 0 00-5.141-1.835.12.12 0 01-.074-.122.114.114 0 01.032-.068.116.116 0 01.066-.035zM184.738 184.303c1.844-.088 4.007.49 5.209 1.962.044.059-.035.123-.093.098a25.034 25.034 0 00-5.141-1.834.12.12 0 01-.074-.123.12.12 0 01.032-.068.115.115 0 01.067-.035zM205.334 185.618c2.075-.064 2.173 3.159.098 3.222-2.075.064-2.173-3.159-.098-3.222z"/>
    <path fill="#263238" d="M187.038 180.335c1.04 1.251 2.585 2.011 3.924 2.874a.224.224 0 00.328-.157c.03 0 .059 0 .054-.054a9.649 9.649 0 00-1.834-4.669c-.603-.785-1.805-1.506-2.718-.697-.912.809-.363 1.967.246 2.703zm-.138-1.531c.118-2.016 1.962-.529 2.404.064.265.393.504.803.716 1.226.451.874.77 1.791 1.133 2.703-.638-.466-1.305-.873-1.962-1.314-.77-.53-2.354-1.565-2.291-2.679z"/>
    <path fill="#263238" d="M197.874 181.6c-.187-1.202-1.57-1.417-2.536-1.197a9.671 9.671 0 00-4.415 2.419.04.04 0 00-.014.017.043.043 0 000 .044.04.04 0 00.014.017.224.224 0 00-.011.204.227.227 0 00.158.13c1.589.191 3.267.593 4.866.294.961-.177 2.114-.79 1.938-1.928zm-4.302 1.433c-.785-.074-1.56-.187-2.35-.236a28.656 28.656 0 012.6-1.359c.433-.193.879-.357 1.334-.49.702-.187 3.085-.138 1.889 1.471-.658.918-2.551.712-3.473.614z"/>
    <path fill="#263238" d="M188.117 180.325h21.357s-3.806-29.068-2.536-30.971c.554-.829 28.278 1.962 36.387-6.838 7.416-8.03-.133-23.079-.133-23.079h-22.77s-.49 6.45-1.687 9.026c-.525 1.108-25.943-.466-29.922 6.793-5.322 9.707-.696 45.069-.696 45.069z"/>
    <path fill="#37474F" d="M207.208 176.263c-2.408-.068-4.826-.161-7.24-.161-2.413 0-4.836.054-7.254.147-.682.029-2.698.122-3.022.147a8.267 8.267 0 00-.981.083.04.04 0 00-.016.013c-.003.006-.006.012-.006.019 0 .007.003.014.006.019a.04.04 0 00.016.013c.525.093 5.989.152 7.186.157 2.404 0 4.807-.064 7.206-.147l4.096-.157c.078-.005.088-.133.009-.133zM221.35 126.402c.098-.686.186-1.368.27-2.05.181-1.56.343-3.134.392-4.704 0-.123-.172-.113-.186 0-.147 1.212-.255 2.453-.393 3.64-.137 1.187-.245 2.428-.49 3.615-.069.358-.216.956-.677.981-.613 0-.731-.824-.785-1.276a20.142 20.142 0 01-.064-3.394c.069-1.29.231-2.575.373-3.86 0-.044-.069-.054-.078 0-.53 2.497-1.04 5.111-.599 7.662a1.413 1.413 0 00.824 1.206h.064v.819a.094.094 0 00.093.094.09.09 0 00.066-.028.09.09 0 00.027-.066c.03 0 .059-.024.064-.063a1.965 1.965 0 000-.741.904.904 0 00.76-.407c.224-.443.339-.932.339-1.428z"/>
    <path fill="#37474F" d="M219.089 128.252a35.99 35.99 0 014.905 4.027c.059.054 0 .152-.079.098-1.668-1.29-3.384-2.551-4.978-3.924a.128.128 0 01.064-.214.128.128 0 01.088.013zM237.792 129.488a9.933 9.933 0 01-1.472-.113c-.43-.085-.856-.193-1.275-.324-.79-.235-1.751-.49-2.325-1.133a8.224 8.224 0 01-1.319-2.276 9.128 9.128 0 01-.775-2.708c0-.044-.069-.044-.064 0 .062.972.227 1.933.49 2.87.143.467.323.921.54 1.359a3.788 3.788 0 003.33 2.418 8.088 8.088 0 002.894 0c.059.005.035-.093-.024-.093z"/>
    <path fill="#37474F" d="M204.619 147.98a1.249 1.249 0 011.045-.981 10.199 10.199 0 011.849-.039c1.422 0 2.845.029 4.267.034 5.602 0 11.282-.147 16.766-1.251a38.873 38.873 0 007.848-2.364c2.139-.927 4.278-2.197 5.612-4.164 1.535-2.266 1.653-5.229 1.604-7.878a30.358 30.358 0 00-1.374-8.432 28.343 28.343 0 00-.74-2.05c0-.044.049-.079.064-.035a29.125 29.125 0 012.226 8.138c.163 1.379.225 2.767.187 4.155a16.04 16.04 0 01-.525 4.037c-1.472 4.954-7.009 7.004-11.503 8.265-5.395 1.516-11.046 1.932-16.638 2.016-2.811.044-5.626 0-8.437-.034-.534 0-1.417-.162-1.736.402a3.158 3.158 0 00-.255 1.025c-.059.392-.103.79-.133 1.192a33.369 33.369 0 00.059 4.483c.177 3.035.386 6.068.628 9.099.245 3.046.584 6.088.804 9.139.054.745.128 1.471.197 2.236 0 .084-.138.103-.147 0-.78-6.023-1.34-12.071-1.737-18.149-.098-1.496-.206-2.997-.25-4.498a16.1 16.1 0 01.319-4.346z"/>
    <path fill="#37474F" d="M218.294 149.094a46.142 46.142 0 005.67-.412c1.771-.221 3.542-.462 5.298-.766 3.061-.52 6.19-1.094 9.084-2.261a15.999 15.999 0 004.376-2.536.035.035 0 01.026-.009.03.03 0 01.025.012c.007.007.01.016.01.026a.04.04 0 01-.012.025c-2.188 2.119-4.959 3.365-7.878 4.16a64.14 64.14 0 01-10.193 1.79 54.866 54.866 0 01-6.411.186c-.142 0-.127-.211.005-.215z"/>
    <path fill="#F7A9A0" d="M222.258 94.17c-3.292 5.46-9.781 12.872-14.323 15.525-1.962 1.143-11.557 2.09-16.835 1.732-1.962-.137.118-11.252 2.271-11.346 1.472-.059 9.874 1.33 10.958.937 2.002-.716 9.35-6.49 14.412-9.423 2.825-1.638 5.562-.819 3.517 2.576z"/>
    <path fill="#F7A9A0" d="M193.43 111.456c-1.364.059-8.775-.058-10.507-.524-1.731-.466-6.612-2.178-6.377-3.537.236-1.359 1.693-.981 1.693-.981s-1.962-1.05-1.595-2.399c.368-1.349 2.615-.677 2.615-.677s-1.923-1.221-1.472-2.54c.452-1.32 2.61-.26 2.61-.26s-1.81-1.035-.981-1.962c.981-1.124 4.11 1.162 6.058 1.535.441.088 9.094 1.079 9.094 1.079l-1.138 10.266z"/>
    <path fill="#263238" d="M180.196 100.454c2.295 1.678 3.59 2.011 6.377 2.198.011 0 .022.004.031.013a.044.044 0 01.013.031.046.046 0 01-.013.031.048.048 0 01-.031.013c-2.752.064-4.415-.123-6.475-2.178-.089-.103-.01-.186.098-.108zM179.067 103.211c2.536 1.53 3.925 1.903 6.868 2.315.044 0 .039.078 0 .074-2.889-.162-4.567-.388-6.902-2.252-.127-.083-.083-.211.034-.137zM178.375 106.433c2.566 1.305 4.086 1.786 6.961 1.82a.055.055 0 01.054.054.055.055 0 01-.054.054c-2.943.245-4.837-.338-6.995-1.844-.142-.103-.123-.167.034-.084z"/>
    <path fill="#F7A9A0" d="M195.994 100.233s-2.452-2.575-3.791-3.473c-1.339-.897-7.51-2.398-7.912-1.079-.52 1.702 2.879 3.272 4.645 3.826 0 0-1.202 3.924.981 5.587 2.183 1.663 6.077-4.861 6.077-4.861z"/>
    <path fill="#263238" d="M184.301 96.206c.647 1.889 3.012 2.453 4.684 3.13a.166.166 0 01.103.111.159.159 0 01-.029.149c-.397 1.682-.461 4.169.76 5.523a.042.042 0 010 .059.042.042 0 01-.059 0c-1.506-1.275-1.638-3.723-1.089-5.538-1.726-.653-4.071-1.334-4.39-3.434 0-.01.015-.014.02 0z"/>
    <path fill="#1789FC" d="M211.49 95.74l4.734 9.521s6.867-9.467 8.093-12.822c1.383-3.777-.848-3.66-4.331-2.085-3.483 1.575-8.496 5.386-8.496 5.386z"/>
    <path fill="#000" d="M211.49 95.74l4.734 9.521s6.867-9.467 8.093-12.822c1.383-3.777-.848-3.66-4.331-2.085-3.483 1.575-8.496 5.386-8.496 5.386z" opacity=".1"/>
    <path fill="#263238" d="M213.379 95.22c.77 1.133 2.59 4.847 2.899 5.46.162.319.75 1.633.917 1.962 0 .044-.049.068-.069.024-.314-.608-.691-1.187-1.01-1.8-.319-.613-2.311-4.321-2.781-5.611-.01-.04.029-.06.044-.035z"/>
    <path fill="#1789FC" d="M246.705 122.841s-28.627 3.973-28.622 3.978c.078.56-1.516-22.642 4.037-37.195.378-.981 4.738-2.61 6.975-1.055 9.805 6.803 17.664 34.635 17.61 34.272z"/>
    <path fill="#fff" d="M245.149 117.99a12.253 12.253 0 01-2.418 2.139 9.629 9.629 0 01-3.448 1.437c-.613.125-1.235.199-1.859.221h-.981c-.309 0-.623 0-.932-.059a11.574 11.574 0 01-3.62-.927 10.849 10.849 0 01-1.644-.903c-.132-.083-.255-.181-.382-.27a5.264 5.264 0 01-.378-.279c-.24-.201-.49-.393-.716-.608a22.024 22.024 0 01-2.511-2.767c-.251-.314-.491-.633-.736-.952l-.084-.107c-.49-.633-.981-1.266-1.471-1.879a10.709 10.709 0 00-.613-.706c-.206-.216-.422-.452-.653-.663a8.894 8.894 0 00-1.471-1.143 6.544 6.544 0 00-1.688-.76l-.446-.113c-.152-.039-.304-.049-.456-.078a3.7 3.7 0 00-.393-.049.441.441 0 000-.089c.132.01.263.026.393.05.157.029.314.039.466.078l.451.113c.603.175 1.18.432 1.712.765a9.087 9.087 0 011.472 1.158c.23.211.436.441.657.667.221.225.417.461.613.701.53.628 1.03 1.285 1.53 1.938l.079.103.755.922a21.532 21.532 0 002.507 2.747c.221.216.49.402.706.603.118.098.25.182.373.275.123.093.25.186.383.27a10.91 10.91 0 001.623.887c1.137.499 2.349.807 3.586.913.309.044.618.044.927.059h.956a11.724 11.724 0 001.84-.226 9.37 9.37 0 003.399-1.422 11.358 11.358 0 001.472-1.148c.343-.319.672-.662.981-1.016l.019.118zm-.554-1.633h-.289a7.768 7.768 0 01-1.83-.295 8.567 8.567 0 01-1.707-.706 13.986 13.986 0 01-2.943-2.247c-.824-.784-1.599-1.628-2.384-2.452l-.088-.093-.118-.128a34.341 34.341 0 00-2.668-2.619 13 13 0 00-3.12-2.065 9.648 9.648 0 00-3.63-.883 11.398 11.398 0 00-1.874.073l-.49.064-.456.088c-.309.059-.618.113-.918.202-1.217.3-2.376.797-3.433 1.471l-.138.088v.152l.216-.142a11.586 11.586 0 013.395-1.471c.299-.089.603-.138.907-.197l.456-.088.461-.064a11.845 11.845 0 011.854-.068 9.633 9.633 0 011.835.265 9.16 9.16 0 011.746.613c.564.258 1.105.561 1.619.907.512.347 1.004.723 1.471 1.128a35.278 35.278 0 012.664 2.61c.029.034.064.064.088.098.025.034.064.064.093.093.79.844 1.575 1.697 2.419 2.497.89.88 1.893 1.639 2.982 2.256a8.19 8.19 0 003.586 1.011h.328c-.009-.035-.024-.064-.034-.098zm-2.614-7.005c-.743-.1-1.495-.121-2.242-.064a12.38 12.38 0 00-3.507.869c-.299.117-.599.25-.893.387l-.118.054c-.76.358-1.471.76-2.222 1.172-1.049.594-2.08 1.212-3.154 1.751a14.033 14.033 0 01-3.36 1.246 9.226 9.226 0 01-.883.133h-.122a8.633 8.633 0 01-2.556-.142c-.147 0-.289-.074-.436-.108l-.432-.118c-.285-.088-.564-.206-.844-.304a11.423 11.423 0 01-1.609-.8 8.628 8.628 0 01-1.471-1.094.842.842 0 000 .123c.441.402.923.757 1.437 1.06.516.313 1.058.582 1.619.804.284.103.564.221.853.309l.437.123c.147.034.289.088.436.108a8.86 8.86 0 002.664.147h.117c.277-.028.552-.071.825-.128 1.18-.27 2.321-.69 3.394-1.251 1.074-.539 2.109-1.157 3.159-1.746.741-.422 1.471-.829 2.256-1.187l.113-.054c.28-.122.564-.245.854-.358a11.961 11.961 0 013.472-.858 10.164 10.164 0 012.286.073 1.117 1.117 0 00-.073-.147zm-10.934-13.99c-.467.408-.979.76-1.526 1.05a7.668 7.668 0 01-1.726.667 9.169 9.169 0 01-2.222.28h-.177a11.339 11.339 0 01-1.29-.088 8.68 8.68 0 01-1.795-.452 9.053 9.053 0 01-1.658-.838c-.128-.079-.25-.162-.373-.246a.498.498 0 00-.024.094l.348.23a8.535 8.535 0 003.488 1.315c.367.044.73.073 1.098.083h.172a9.432 9.432 0 002.453-.28 8.455 8.455 0 001.751-.672 8.57 8.57 0 001.545-1.059 13.87 13.87 0 002.251-2.546l-.073-.093a13.461 13.461 0 01-2.242 2.556zm-1.236-2.08a14.784 14.784 0 01-2.453 2.777c-.473.403-.984.76-1.525 1.065l-.201.117-.206.103-.206.098-.187.094-.426.186-.216.093-.216.079-.442.157c-.147.049-.294.088-.446.132-.152.044-.294.093-.446.132l-.452.108c-.6.157-1.219.231-1.839.221a6.056 6.056 0 01-.844-.069.198.198 0 000 .07c.284.043.571.068.859.073a6.953 6.953 0 001.854-.221l.456-.108c.152-.04.299-.088.451-.132.152-.044.299-.084.447-.133l.441-.162.221-.078.216-.088.431-.187.324-.162.093-.049.113-.054.098-.049.201-.118a9.834 9.834 0 001.541-1.069 14.74 14.74 0 002.482-2.786c.593-.824 1.162-1.668 1.805-2.453l-.064-.063c-.692.804-1.256 1.658-1.864 2.477z"/>
    <path fill="#F7A9A0" d="M223.876 93.003c1.398.211 4.125-1.633 4.944-3.674a30.946 30.946 0 00-.677-3.173c-.216-1.016-.437-2.154-.564-3.204-.025-.215-6.401 2.39-6.401 2.39.531 1.269.907 2.598 1.118 3.958a2.71 2.71 0 010 .441.394.394 0 000 .069c-.034.839.083 2.962 1.58 3.193z"/>
    <path fill="#263238" d="M222.301 89.741v.069c.226.004.453-.01.677-.044 3.875-.55 4.316-5.528 4.37-6.784-1.152.304-6.17 2.36-6.17 2.36.533 1.27.909 2.6 1.118 3.963.014.145.016.29.005.436z"/>
    <path fill="#F7A9A0" d="M229.423 76.286c.246 2.453-2.3 8.883-4.238 10.046-2.81 1.683-6.749 1.114-8.015-2.114-1.226-3.125 2.237-11.449 4.341-12.44 3.1-1.466 7.544.888 7.912 4.508z"/>
    <path fill="#263238" d="M222.12 78.989v.05c-.187.43-.324.95 0 1.25 0 0 0 .03 0 0-.432-.23-.245-.922 0-1.3z"/>
    <path fill="#263238" d="M222.684 78.685c.717.22.226 1.643-.436 1.437-.662-.206-.167-1.618.436-1.437zM219.545 78.16s-.039 0-.049.03c-.137.441-.368.932-.819.936v.03c.505.118.834-.505.868-.996z"/>
    <path fill="#263238" d="M219.31 77.586c-.687-.299-1.237 1.099-.594 1.379.643.28 1.172-1.129.594-1.379zM223.469 78.229a5.85 5.85 0 01-.491-.383 1.008 1.008 0 01-.417-.49.316.316 0 01.177-.349.787.787 0 01.775.187c.248.157.424.406.49.692a.332.332 0 01-.342.419.329.329 0 01-.192-.076zM219.019 76.689c.207.034.408.034.614.049.214.046.438.022.637-.07a.314.314 0 00.108-.373.778.778 0 00-.691-.396 1.164 1.164 0 00-.815.186.341.341 0 00-.026.517.336.336 0 00.173.087zM221.114 83.217c-.142.064-.294.172-.461.128a1.23 1.23 0 01-.437-.27h-.024a.623.623 0 00.49.432.491.491 0 00.491-.27s-.039-.03-.059-.02zM219.589 81.795c.101.307.28.583.52.8.138.115.31.184.49.196.383.029.491-.29.535-.59a2.234 2.234 0 000-.49 2.452 2.452 0 01-1.545.084z"/>
    <path fill="#FF99BA" d="M220.108 82.575a.851.851 0 00.491.196c.383.03.49-.29.535-.589a.87.87 0 00-1.026.393z"/>
    <path fill="#263238" d="M226.721 79.298c-.299-1.447.79-3.669.177-4.38-1.33-1.535-4.724.657-6.833.407-2.109-.25-2.561-1.648-1.962-3.257.598-1.609 2.128-2.546 4.463-2.6a8.68 8.68 0 015.533 2.08s-.412-.893-.186-1.128c.226-.236 1.128.692 1.388 1.07.189.321.317.675.378 1.044.313-.038.631-.03.942.024.45.09.854.335 1.143.692 0 .128-.731.128-1.256.088 0 0 .804 1.413.647 2.517-.157 1.103-2.541 6.126-2.943 6.131-.579.005-1.373-2.104-1.491-2.688z"/>
    <path fill="#263238" d="M230.302 73.181s-.044 0-.03.025c.454.473.768 1.062.908 1.702a4.421 4.421 0 01-.265 2.276c-.491 1.413-1.383 2.639-2.168 3.924-.025.034.039.074.063.04a15.432 15.432 0 002.34-4.194c.407-1.32.29-2.88-.848-3.773zM227.045 74.393a4.976 4.976 0 00-1.864-.113 7.098 7.098 0 00-1.688.584 7.092 7.092 0 01-3.924.56v.028a6.256 6.256 0 003.606-.308 15.417 15.417 0 011.756-.663 6.429 6.429 0 012.079 0 .055.055 0 00.027-.01.065.065 0 00.017-.024c.003-.009.004-.019.003-.028a.061.061 0 00-.012-.026zM226.892 70.802a9.646 9.646 0 00-2.506-1.197 7.768 7.768 0 00-2.634-.426c-1.541.054-3.056.843-3.606 2.354a3.337 3.337 0 00.006 2.414.038.038 0 00.014.015.043.043 0 00.019.007c.007 0 .014 0 .021-.002a.051.051 0 00.017-.012.043.043 0 00.01-.018.048.048 0 00.001-.02 3.428 3.428 0 01-.022-2.196 3.428 3.428 0 011.298-1.748c1.378-.917 3.129-.78 4.645-.338.943.293 1.852.684 2.713 1.167h.024z"/>
    <path fill="#F7A9A0" d="M226.642 81.466s1.962-1.82 2.831-1.07c.868.751-.957 3.616-2.198 3.793a1.194 1.194 0 01-1.422-.981l.789-1.742z"/>
    <path fill="#263238" d="M228.933 81.206v.03a3.01 3.01 0 00-1.928 1.51.658.658 0 01.981.035s0 .049-.029.039a.726.726 0 00-.844.074 3.505 3.505 0 00-.52.554c-.054.064-.171 0-.127-.079.235-1.044 1.344-2.3 2.467-2.163z"/>
    <path fill="#455A64" d="M222.973 90.08h-53.956v46.241h53.956V90.08z"/>
    <path fill="#37474F" d="M222.978 90.08h-15.833v46.241h15.833V90.08z"/>
    <path fill="#F7A9A0" d="M233.843 93.93c2.85 6.347 9.153 19.351 7.535 24.246-2.129 6.421-13.244 13.504-16.138 15.491-1.256.863-7.5-7.142-7.118-8.726.383-1.585 12.087-10.851 12.715-11.891.627-1.039-2.016-11.595-2.453-17.486-.579-7.427 3.046-7.01 5.459-1.634z"/>
    <path fill="#F7A9A0" d="M215.238 129.233c.343-.702 0-.883-1.266-.28-1.265.603-5.65 4.052-6.72 2.413-1.069-1.638 5.215-6.411 7.358-7.259 2.144-.849 5.916-1.472 5.916-1.472-1.016 1.182-3.282 4.268-5.288 6.598z"/>
    <path fill="#F7A9A0" d="M228.281 131.18c-3.042 3.198-6.632 7.358-11.425 8.741a2.452 2.452 0 01-1.613-.049c-2.134.652-3.086-.162-3.086-.162-2.173 0-3.031-.981-3.031-.981s-2.516.741-3.213-.706c-.79-1.619 2.899-2.34 4.684-3.973 4.091-3.753 8.859-10.223 9.928-11.425l7.756 8.555z"/>
    <path fill="#263238" d="M217.647 133.147a36.002 36.002 0 01-3.768 3.081 36.064 36.064 0 01-4.728 2.452.036.036 0 00-.02.006.04.04 0 00-.015.014.034.034 0 00-.007.019.05.05 0 00.002.021.066.066 0 00.012.017.04.04 0 00.018.01.037.037 0 00.021 0 .042.042 0 00.018-.008 18.886 18.886 0 008.516-5.568c.049-.049.009-.093-.049-.044zM220.266 135.286c-1.251.981-3.434 2.703-8.128 4.375v.03a16.925 16.925 0 008.167-4.346c.083-.069.044-.123-.039-.059zM221.654 136.463c-2.192 1.594-3.772 2.32-6.406 3.394v.03c3.12-.908 4.145-1.595 6.46-3.355.093-.059.03-.133-.054-.069z"/>
    <path fill="#1789FC" d="M228.86 103.667l10.619.491s-4.905-10.61-7.249-13.323c-2.62-3.05-3.606-1.045-3.925 2.767-.318 3.811.555 10.065.555 10.065z"/>
    <path fill="#000" d="M228.86 103.667l10.619.491s-4.905-10.61-7.249-13.323c-2.62-3.05-3.606-1.045-3.925 2.767-.318 3.811.555 10.065.555 10.065z" opacity=".1"/>
    <path fill="#263238" d="M229.321 101.759c1.358-.118 5.493.103 6.175.137.358 0 1.795.138 2.154.152.044 0 .034.074 0 .069-.687 0-1.379.024-2.066 0-.686-.025-4.905-.093-6.259-.309a.024.024 0 01-.01-.01.021.021 0 01-.005-.013.026.026 0 01.002-.015.031.031 0 01.009-.011zM228.207 99.144c-.112-.55-.225-1.098-.318-1.653.103.403.191.805.279 1.207a37.369 37.369 0 01-.068-2.453c.171 1.232.274 2.453.417 3.718.142 1.266.26 2.429.377 3.65l.721.132a.04.04 0 01.026.037.048.048 0 01-.007.023.045.045 0 01-.019.014h-.804a.118.118 0 01-.133-.098 72.043 72.043 0 01-.471-4.577z"/>
  </g>
</svg>
