<svg xmlns="http://www.w3.org/2000/svg" width="101" height="64" fill="none" viewBox="0 0 101 64">
  <path fill="#EDF0FD" d="M21.336 30.064h-6.372l-1.575-6.299-1.146-4.438-1.074-4.295-2.22-8.661H5.729v12.956h5.584l1.074 4.438H5.728v6.3H0V4.223a2.154 2.154 0 012.148-2.148h10.525l4.653 15.104 1.432 4.58 2.578 8.304zM50.336.072v10.02c-1.504-1.43-3.222-2.147-5.227-2.147-1.718 0-3.293.502-4.582 1.432-1.289 1.002-2.363 2.29-3.079 4.009v12.312c.287.715.645 1.36 1.003 1.932 1.431 2.076 3.436 3.078 6.085 3.078 2.578 0 4.654-1.074 6.158-3.293l.358 2.649h5.083V0h-5.8v.072zm0 23.764c-.573.86-1.218 1.575-1.862 1.933-.644.43-1.432.644-2.22.644-1.216 0-2.219-.5-2.863-1.646-.645-1.074-1.003-2.935-1.003-5.512 0-2.433.358-4.223 1.074-5.368.716-1.146 1.79-1.718 3.079-1.718.788 0 1.432.143 2.005.5.572.359 1.145.86 1.718 1.504v9.663h.072zM35.157 9.662c-1.074-1.145-2.506-1.718-4.44-1.718-1.36 0-2.577.287-3.65.86-1.075.572-2.077 1.43-2.936 2.505l-.43-2.72H18.69v10.236l3.437 11.238h2.291V15.246c.644-1.003 1.289-1.719 1.933-2.22.645-.5 1.432-.715 2.22-.715.787 0 1.36.214 1.79.716.43.5.573 1.288.573 2.433v14.674h5.727V14.458c.072-2.076-.43-3.65-1.503-4.796zM70.452 8.304l-1.002 5.583c-.788-.215-1.36-.286-1.933-.286-1.289 0-2.291.43-2.935 1.36-.716.859-1.29 2.219-1.647 4.08v11.095h-5.728V8.662h5.012l.501 4.151c.501-1.503 1.289-2.72 2.22-3.507 1.002-.86 2.076-1.289 3.365-1.289.644 0 1.36.072 2.147.287zM87.279 10.95c1.79 2.005 2.72 4.796 2.72 8.376 0 2.29-.429 4.294-1.216 5.94-.86 1.719-2.005 3.079-3.58 4.01-1.575.93-3.365 1.43-5.513 1.43-3.222 0-5.728-1.001-7.59-3.005-1.79-2.005-2.72-4.796-2.72-8.375 0-2.291.43-4.295 1.217-5.942.86-1.718 2.005-3.078 3.58-4.008 1.575-.93 3.365-1.432 5.513-1.432 3.222 0 5.728 1.002 7.589 3.007zm-10.811 3.007c-.716 1.145-1.074 2.935-1.074 5.369 0 2.433.358 4.223 1.074 5.368.716 1.145 1.79 1.718 3.222 1.718s2.506-.573 3.222-1.718c.716-1.145 1.074-2.935 1.074-5.368 0-2.434-.358-4.224-1.074-5.369-.716-1.145-1.79-1.718-3.222-1.718s-2.506.573-3.222 1.718zM5.115 33.485c.62 0 1.14.08 1.56.24.43.16.865.42 1.305.78l-.78.915c-.63-.51-1.295-.765-1.995-.765-.86 0-1.555.33-2.085.99-.52.66-.78 1.72-.78 3.18 0 1.42.26 2.47.78 3.15.52.67 1.21 1.005 2.07 1.005.44 0 .825-.075 1.155-.225.33-.15.68-.36 1.05-.63l.705.9c-.32.33-.73.605-1.23.825-.5.22-1.075.33-1.725.33-.84 0-1.59-.205-2.25-.615-.65-.42-1.16-1.03-1.53-1.83-.36-.81-.54-1.78-.54-2.91 0-1.13.19-2.095.57-2.895.38-.81.895-1.42 1.545-1.83a3.993 3.993 0 012.175-.615zm7.08 2.43c1.11 0 1.97.37 2.58 1.11.62.74.93 1.745.93 3.015 0 .82-.14 1.545-.42 2.175a3.35 3.35 0 01-1.214 1.455c-.53.34-1.16.51-1.89.51-1.11 0-1.975-.37-2.595-1.11-.62-.74-.93-1.745-.93-3.015 0-.82.14-1.54.42-2.16.28-.63.685-1.115 1.215-1.455.53-.35 1.165-.525 1.905-.525zm0 1.11c-1.37 0-2.054 1.01-2.054 3.03 0 2.01.68 3.015 2.04 3.015 1.36 0 2.04-1.01 2.04-3.03 0-2.01-.675-3.015-2.025-3.015zm9.21-1.11c.72 0 1.28.215 1.68.645.41.43.615 1.02.615 1.77V44h-1.38v-5.475c0-.56-.105-.955-.315-1.185-.21-.23-.52-.345-.93-.345-.42 0-.79.12-1.11.36-.32.24-.62.585-.9 1.035V44h-1.38v-7.905h1.185l.12 1.17c.28-.42.625-.75 1.035-.99.42-.24.88-.36 1.38-.36zm6.914 0a4.4 4.4 0 011.455.225c.43.15.84.375 1.23.675l-.585.87c-.36-.23-.705-.4-1.035-.51-.32-.11-.66-.165-1.02-.165-.45 0-.805.095-1.065.285-.26.18-.39.43-.39.75s.12.57.36.75c.25.18.695.355 1.335.525.88.22 1.535.52 1.965.9.44.38.66.9.66 1.56 0 .78-.305 1.375-.915 1.785-.6.41-1.335.615-2.205.615-1.2 0-2.195-.345-2.985-1.035l.735-.84c.67.51 1.41.765 2.22.765.52 0 .93-.105 1.23-.315.31-.22.465-.515.465-.885 0-.27-.055-.485-.165-.645-.11-.17-.3-.315-.57-.435-.27-.13-.665-.265-1.185-.405-.84-.22-1.45-.515-1.83-.885-.37-.37-.555-.84-.555-1.41 0-.41.12-.78.36-1.11.25-.34.59-.6 1.02-.78.44-.19.93-.285 1.47-.285zM38.756 44h-1.185l-.105-1.23c-.3.49-.645.85-1.035 1.08-.39.22-.865.33-1.425.33-.69 0-1.23-.21-1.62-.63-.39-.42-.585-1.015-.585-1.785v-5.67h1.38v5.52c0 .54.095.925.285 1.155.19.22.5.33.93.33.77 0 1.43-.455 1.98-1.365v-5.64h1.38V44zm4.126.18c-.51 0-.915-.15-1.215-.45-.29-.31-.435-.74-.435-1.29v-9.525l1.38-.165v9.66c0 .22.035.38.105.48.08.1.21.15.39.15.19 0 .36-.03.51-.09l.36.96c-.33.18-.695.27-1.095.27zm6.51-.54c-.52.36-1.11.54-1.77.54-.67 0-1.196-.19-1.576-.57-.37-.39-.555-.95-.555-1.68v-4.77h-1.38v-1.065h1.38V34.31l1.38-.165v1.95h1.875l-.15 1.065h-1.725v4.71c0 .41.07.71.21.9.15.18.395.27.735.27.31 0 .66-.105 1.05-.315l.525.915zm3.88-7.725c1.11 0 1.97.37 2.58 1.11.62.74.93 1.745.93 3.015 0 .82-.14 1.545-.42 2.175a3.35 3.35 0 01-1.215 1.455c-.53.34-1.16.51-1.89.51-1.11 0-1.975-.37-2.595-1.11-.62-.74-.93-1.745-.93-3.015 0-.82.14-1.54.42-2.16.28-.63.685-1.115 1.215-1.455.53-.35 1.165-.525 1.905-.525zm0 1.11c-1.37 0-2.055 1.01-2.055 3.03 0 2.01.68 3.015 2.04 3.015 1.36 0 2.04-1.01 2.04-3.03 0-2.01-.675-3.015-2.025-3.015zm8.924-1.11c.28 0 .54.03.78.09l-.255 1.35c-.24-.06-.47-.09-.69-.09-.49 0-.885.18-1.185.54-.3.36-.535.92-.705 1.68V44h-1.38v-7.905h1.185l.135 1.605c.21-.59.495-1.035.855-1.335.36-.3.78-.45 1.26-.45zm3.431.18V44h-1.38v-7.905h1.38zm-.704-3.795c.29 0 .525.09.704.27.18.18.27.405.27.675s-.09.495-.27.675c-.18.17-.414.255-.704.255a.964.964 0 01-.69-.255.916.916 0 01-.27-.675c0-.27.09-.495.27-.675.18-.18.41-.27.69-.27zm8.583 9.855c0 .32.055.56.165.72.11.15.275.265.495.345l-.315.96c-.41-.05-.74-.165-.99-.345-.25-.18-.435-.46-.555-.84-.53.79-1.315 1.185-2.355 1.185-.78 0-1.395-.22-1.845-.66-.45-.44-.675-1.015-.675-1.725 0-.84.3-1.485.9-1.935.61-.45 1.47-.675 2.58-.675h1.215V38.6c0-.56-.135-.96-.405-1.2s-.685-.36-1.245-.36c-.58 0-1.29.14-2.13.42L68 36.455c.98-.36 1.89-.54 2.73-.54.93 0 1.625.23 2.085.69.46.45.69 1.095.69 1.935v3.615zm-3.24.99c.79 0 1.41-.41 1.86-1.23V40.1H71.09c-1.46 0-2.19.54-2.19 1.62 0 .47.115.825.345 1.065.23.24.57.36 1.02.36zm12.549-9.66c.54 0 1.015.1 1.425.3.42.19.745.46.975.81.23.35.345.74.345 1.17 0 .59-.19 1.1-.57 1.53-.37.42-.885.825-1.545 1.215l2.64 2.49c.4-.81.7-1.655.9-2.535l1.29.375c-.35 1.16-.795 2.145-1.335 2.955l1.68 1.575-.99.81-1.455-1.41a4.37 4.37 0 01-1.455 1.065c-.54.23-1.16.345-1.86.345-.66 0-1.245-.115-1.755-.345-.5-.23-.895-.555-1.185-.975a2.66 2.66 0 01-.42-1.485c0-.62.175-1.16.525-1.62.35-.47.87-.925 1.56-1.365-.5-.48-.87-.91-1.11-1.29-.23-.38-.345-.81-.345-1.29 0-.68.235-1.235.705-1.665.48-.44 1.14-.66 1.98-.66zm.015 1.02c-.42 0-.75.12-.99.36s-.36.55-.36.93c0 .36.095.685.285.975.19.28.49.615.9 1.005.51-.31.895-.615 1.155-.915.26-.31.39-.65.39-1.02 0-.42-.125-.745-.375-.975-.25-.24-.585-.36-1.005-.36zm-.45 4.635c-.5.33-.87.67-1.11 1.02-.24.34-.36.73-.36 1.17 0 .55.19.98.57 1.29.39.31.9.465 1.53.465.47 0 .895-.09 1.275-.27.38-.18.745-.45 1.095-.81l-3-2.865zM7.005 58l-.78-2.595H2.31L1.53 58H.09l3.315-10.335h1.8L8.505 58h-1.5zm-4.35-3.75H5.88l-1.605-5.4-1.62 5.4zm9.214-4.335a4.4 4.4 0 011.455.225c.43.15.84.375 1.23.675l-.585.87c-.36-.23-.705-.4-1.035-.51-.32-.11-.66-.165-1.02-.165-.45 0-.805.095-1.065.285-.26.18-.39.43-.39.75s.12.57.36.75c.25.18.695.355 1.335.525.88.22 1.535.52 1.965.9.44.38.66.9.66 1.56 0 .78-.305 1.375-.915 1.785-.6.41-1.335.615-2.205.615-1.2 0-2.195-.345-2.985-1.035l.735-.84c.67.51 1.41.765 2.22.765.52 0 .93-.105 1.23-.315.31-.22.465-.515.465-.885 0-.27-.055-.485-.165-.645-.11-.17-.3-.315-.57-.435-.27-.13-.665-.265-1.185-.405-.84-.22-1.45-.515-1.83-.885-.37-.37-.555-.84-.555-1.41 0-.41.12-.78.36-1.11.25-.34.59-.6 1.02-.78.44-.19.93-.285 1.47-.285zm6.555 0a4.4 4.4 0 011.455.225c.43.15.84.375 1.23.675l-.585.87c-.36-.23-.705-.4-1.035-.51-.32-.11-.66-.165-1.02-.165-.45 0-.805.095-1.065.285-.26.18-.39.43-.39.75s.12.57.36.75c.25.18.695.355 1.335.525.88.22 1.535.52 1.965.9.44.38.66.9.66 1.56 0 .78-.305 1.375-.915 1.785-.6.41-1.335.615-2.205.615-1.2 0-2.195-.345-2.985-1.035l.735-.84c.67.51 1.41.765 2.22.765.52 0 .93-.105 1.23-.315.31-.22.465-.515.465-.885 0-.27-.055-.485-.165-.645-.11-.17-.3-.315-.57-.435-.27-.13-.665-.265-1.185-.405-.84-.22-1.45-.515-1.83-.885-.37-.37-.555-.84-.555-1.41 0-.41.12-.78.36-1.11.25-.34.59-.6 1.02-.78.44-.19.93-.285 1.47-.285zm10.527 3.9c0 .23-.01.465-.03.705h-5.04c.06.87.28 1.51.66 1.92.38.41.87.615 1.47.615.38 0 .73-.055 1.05-.165.32-.11.655-.285 1.005-.525l.6.825c-.84.66-1.76.99-2.76.99-1.1 0-1.96-.36-2.58-1.08-.61-.72-.915-1.71-.915-2.97 0-.82.13-1.545.39-2.175.27-.64.65-1.14 1.14-1.5.5-.36 1.085-.54 1.755-.54 1.05 0 1.855.345 2.415 1.035s.84 1.645.84 2.865zm-1.365-.405c0-.78-.155-1.375-.465-1.785-.31-.41-.775-.615-1.395-.615-1.13 0-1.745.83-1.845 2.49h3.705v-.09zM33 49.915a4.4 4.4 0 011.455.225c.43.15.84.375 1.23.675l-.585.87c-.36-.23-.705-.4-1.035-.51-.32-.11-.66-.165-1.02-.165-.45 0-.805.095-1.065.285-.26.18-.39.43-.39.75s.12.57.36.75c.25.18.695.355 1.335.525.88.22 1.535.52 1.965.9.44.38.66.9.66 1.56 0 .78-.305 1.375-.915 1.785-.6.41-1.335.615-2.205.615-1.2 0-2.195-.345-2.985-1.035l.735-.84c.67.51 1.41.765 2.22.765.52 0 .93-.105 1.23-.315.31-.22.465-.515.465-.885 0-.27-.055-.485-.165-.645-.11-.17-.3-.315-.57-.435-.27-.13-.665-.265-1.185-.405-.84-.22-1.45-.515-1.83-.885-.37-.37-.555-.84-.555-1.41 0-.41.12-.78.36-1.11.25-.34.59-.6 1.02-.78.44-.19.93-.285 1.47-.285zm6.555 0a4.4 4.4 0 011.455.225c.43.15.84.375 1.23.675l-.585.87c-.36-.23-.705-.4-1.035-.51-.32-.11-.66-.165-1.02-.165-.45 0-.805.095-1.065.285-.26.18-.39.43-.39.75s.12.57.36.75c.25.18.695.355 1.335.525.88.22 1.535.52 1.965.9.44.38.66.9.66 1.56 0 .78-.305 1.375-.915 1.785-.6.41-1.335.615-2.205.615-1.2 0-2.195-.345-2.985-1.035l.735-.84c.67.51 1.41.765 2.22.765.52 0 .93-.105 1.23-.315.31-.22.465-.515.465-.885 0-.27-.055-.485-.165-.645-.11-.17-.3-.315-.57-.435-.27-.13-.665-.265-1.185-.405-.84-.22-1.45-.515-1.83-.885-.37-.37-.555-.84-.555-1.41 0-.41.12-.78.36-1.11.25-.34.59-.6 1.02-.78.44-.19.93-.285 1.47-.285zm7.527 0c1.11 0 1.97.37 2.58 1.11.62.74.93 1.745.93 3.015 0 .82-.14 1.545-.42 2.175a3.35 3.35 0 01-1.215 1.455c-.53.34-1.16.51-1.89.51-1.11 0-1.975-.37-2.595-1.11-.62-.74-.93-1.745-.93-3.015 0-.82.14-1.54.42-2.16.28-.63.685-1.115 1.215-1.455.53-.35 1.165-.525 1.905-.525zm0 1.11c-1.37 0-2.055 1.01-2.055 3.03 0 2.01.68 3.015 2.04 3.015 1.36 0 2.04-1.01 2.04-3.03 0-2.01-.675-3.015-2.025-3.015zm8.925-1.11c.28 0 .54.03.78.09l-.255 1.35c-.24-.06-.47-.09-.69-.09-.49 0-.885.18-1.185.54-.3.36-.535.92-.705 1.68V58h-1.38v-7.905h1.185l.135 1.605c.21-.59.495-1.035.855-1.335.36-.3.78-.45 1.26-.45zm3.431.18V58h-1.38v-7.905h1.38zm-.705-3.795c.29 0 .525.09.705.27.18.18.27.405.27.675s-.09.495-.27.675c-.18.17-.415.255-.705.255a.964.964 0 01-.69-.255.916.916 0 01-.27-.675c0-.27.09-.495.27-.675.18-.18.41-.27.69-.27zm8.584 9.855c0 .32.055.56.165.72.11.15.275.265.495.345l-.315.96c-.41-.05-.74-.165-.99-.345-.25-.18-.435-.46-.555-.84-.53.79-1.315 1.185-2.355 1.185-.78 0-1.395-.22-1.845-.66-.45-.44-.675-1.015-.675-1.725 0-.84.3-1.485.9-1.935.61-.45 1.47-.675 2.58-.675h1.215V52.6c0-.56-.135-.96-.405-1.2s-.685-.36-1.245-.36c-.58 0-1.29.14-2.13.42l-.345-1.005c.98-.36 1.89-.54 2.73-.54.93 0 1.625.23 2.085.69.46.45.69 1.095.69 1.935v3.615zm-3.24.99c.79 0 1.41-.41 1.86-1.23V54.1h-1.035c-1.46 0-2.19.54-2.19 1.62 0 .47.115.825.345 1.065.23.24.57.36 1.02.36z"/>
</svg>
