<svg width="178" height="178" viewBox="0 0 178 178" fill="none" xmlns="http://www.w3.org/2000/svg">
<path d="M88.5 173C136.273 173 175 134.273 175 86.5C175 38.7274 136.273 0 88.5 0C40.7274 0 2 38.7274 2 86.5C2 134.273 40.7274 173 88.5 173Z" fill="#3E85C5"/>
<path d="M175 86.5001C175 75.3808 172.9 64.7525 169.078 54.9874L135.765 21.6748L77.03 80.9726L41.2348 151.325L56.9873 167.078C66.7523 170.9 77.3807 173 88.5 173C136.273 173 175 134.273 175 86.5001Z" fill="#2E588C"/>
<path d="M41.2348 21.6748H135.765V151.326H41.2348V21.6748Z" fill="white"/>
<path d="M88.5 21.6758H135.764V151.324H88.5V21.6758Z" fill="#C0FFFA"/>
<path d="M67.0612 32.6318H109.938V97.5109H67.0612V32.6318Z" fill="#FFE45F"/>
<path d="M88.5 32.6335H109.939V97.5119H88.5V32.6335Z" fill="#FFB531"/>
<path d="M92.5635 62.2714C92.0397 62.0863 91.5055 61.8937 90.9713 61.6943V52.5294C92.1404 52.9112 92.8267 53.49 92.8791 53.5359L92.8544 53.5136L96.2907 49.7881C96.1698 49.6765 94.2006 47.905 90.9713 47.3147V43.0867H85.903V47.4945C85.6847 47.5485 85.4644 47.6073 85.241 47.6745C82.0635 48.6318 79.6898 51.3467 79.0468 54.7598C78.4579 57.8856 79.4682 60.9063 81.6841 62.6445C82.7711 63.4966 84.1044 64.2782 85.9033 65.0942V77.0558C84.5159 76.896 83.5198 76.4757 81.9257 75.4326L79.8051 74.0452L77.0303 78.2868L79.1509 79.6741C81.7895 81.4001 83.633 81.9752 85.9033 82.1475V86.5803H90.9717V81.913C95.5352 80.8284 98.463 76.9636 99.1037 73.1518C99.9295 68.2382 97.3625 63.9676 92.5635 62.2714ZM84.8119 58.656C84.1017 58.0991 83.7939 56.9378 84.0273 55.6981C84.2149 54.7044 84.8025 53.5383 85.903 52.8808V59.3966C85.5026 59.1557 85.1346 58.9091 84.8119 58.656ZM94.1053 72.3112C93.8292 73.9537 92.7642 75.6857 90.9713 76.5618V67.087C94.4726 68.3822 94.2573 71.4076 94.1053 72.3112Z" fill="#474D54"/>
<path d="M92.5648 62.2699C92.0411 62.0874 91.5072 61.8948 90.97 61.6955V52.5285C92.0647 52.8867 92.7405 53.4172 92.8622 53.5219L92.8554 53.5118L96.2918 49.7882C96.1701 49.6767 94.2002 47.9028 90.97 47.3149V43.0845H88.5V86.5811H90.97V81.9115C95.5349 80.8268 98.4644 76.9614 99.103 73.15C99.9308 68.237 97.3629 63.9661 92.5648 62.2699ZM94.1056 72.312C93.8285 73.9542 92.7642 75.6842 90.97 76.5627V67.0882C94.4739 68.3823 94.2577 71.4065 94.1056 72.312Z" fill="#282E33"/>
<path d="M59.4552 108.843H117.545V118.979H59.4552V108.843Z" fill="#474D54"/>
<path d="M88.5 108.842H117.545V118.978H88.5V108.842Z" fill="#282E33"/>
<path d="M59.4552 129.772H117.545V139.909H59.4552V129.772Z" fill="#474D54"/>
<path d="M88.5 129.774H117.545V139.91H88.5V129.774Z" fill="#282E33"/>
</svg>
